HIERARCHY
ROOT root
{
	OFFSET 0.000000 0.000000 0.000000
	CHANNELS 6 Xposition Yposition Zposition Zrotation Yrotation Xrotation
	JOINT lhip
	{
		OFFSET 0.058581 -0.082280 -0.017664
		CHANNELS 3 Zrotation Yrotation Xrotation
		JOINT lknee
		{
			OFFSET 0.043451 -0.386469 0.008037
			CHANNELS 3 Zrotation Yrotation Xrotation
			JOINT lankle
			{
				OFFSET -0.014790 -0.426874 -0.037428
				CHANNELS 3 Zrotation Yrotation Xrotation
				JOINT ltoe
				{
					OFFSET 0.041054 -0.060286 0.122042
					CHANNELS 3 Zrotation Yrotation Xrotation
					End Site
					{
						OFFSET 0.000000 0.000000 0.000000
					}
				}
			}
		}
	}
	JOINT rhip
	{
		OFFSET -0.060310 -0.090513 -0.013543
		CHANNELS 3 Zrotation Yrotation Xrotation
		JOINT rknee
		{
			OFFSET -0.043257 -0.383688 -0.004843
			CHANNELS 3 Zrotation Yrotation Xrotation
			JOINT rankle
			{
				OFFSET 0.019056 -0.420046 -0.034562
				CHANNELS 3 Zrotation Yrotation Xrotation
				JOINT rtoe
				{
					OFFSET -0.034840 -0.062106 0.130323
					CHANNELS 3 Zrotation Yrotation Xrotation
					End Site
					{
						OFFSET 0.000000 0.000000 0.000000
					}
				}
			}
		}
	}
	JOINT lowerback
	{
		OFFSET 0.004439 0.124404 -0.038385
		CHANNELS 3 Zrotation Yrotation Xrotation
		JOINT upperback
		{
			OFFSET 0.004488 0.137956 0.026820
			CHANNELS 3 Zrotation Yrotation Xrotation
			JOINT chest
			{
				OFFSET -0.002265 0.056032 0.002855
				CHANNELS 3 Zrotation Yrotation Xrotation
				JOINT lowerneck
				{
					OFFSET -0.013390 0.211636 -0.033468
					CHANNELS 3 Zrotation Yrotation Xrotation
					JOINT upperneck
					{
						OFFSET 0.010113 0.088937 0.050410
						CHANNELS 3 Zrotation Yrotation Xrotation
						End Site
						{
							OFFSET 0.000000 0.000000 0.000000
						}
					}
				}
				JOINT lclavicle
				{
					OFFSET 0.071702 0.114000 -0.018898
					CHANNELS 3 Zrotation Yrotation Xrotation
					JOINT lshoulder
					{
						OFFSET 0.122921 0.045205 -0.019046
						CHANNELS 3 Zrotation Yrotation Xrotation
						JOINT lelbow
						{
							OFFSET 0.255332 -0.015649 -0.022946
							CHANNELS 3 Zrotation Yrotation Xrotation
							JOINT lwrist
							{
								OFFSET 0.265709 0.012698 -0.007375
								CHANNELS 3 Zrotation Yrotation Xrotation
								End Site
								{
									OFFSET 0.000000 0.000000 0.000000
								}
							}
						}
					}
				}
				JOINT rclavicle
				{
					OFFSET -0.082954 0.112472 -0.023707
					CHANNELS 3 Zrotation Yrotation Xrotation
					JOINT rshoulder
					{
						OFFSET -0.113228 0.046853 -0.008472
						CHANNELS 3 Zrotation Yrotation Xrotation
						JOINT relbow
						{
							OFFSET -0.260127 -0.014369 -0.031269
							CHANNELS 3 Zrotation Yrotation Xrotation
							JOINT rwrist
							{
								OFFSET -0.269108 0.006794 -0.006027
								CHANNELS 3 Zrotation Yrotation Xrotation
								End Site
								{
									OFFSET 0.000000 0.000000 0.000000
								}
							}
						}
					}
				}
			}
		}
	}
}
MOTION
Frames: 17
Frame Time: 0.033333
1.042417 -0.012896 0.265422 86.451956 17.407062 35.255439 13.442053 15.580222 -76.298248 -4.042192 28.302321 82.424174 8.814978 13.738375 6.024390 0.000000 -0.000000 0.000000 -25.648889 -23.613961 -79.905972 -0.830783 -16.266732 142.195539 1.500731 4.918018 2.432403 0.000000 -0.000000 0.000000 4.330244 -1.112973 41.223722 8.192806 -1.125532 -3.211318 3.353371 -2.171494 1.826454 6.105008 -1.616847 22.964448 -0.402584 -4.055858 -8.634882 -5.228601 9.603623 12.538758 -72.500505 9.734546 10.414072 -7.863684 -24.040367 16.418009 57.755599 6.370649 -23.812219 7.659984 -10.814873 15.285514 66.003354 -18.292048 2.965809 15.040753 21.935072 29.352124 -60.115058 -0.624936 -22.173130 
1.042535 -0.015898 0.265174 85.993048 16.971035 35.077958 13.446544 14.380726 -73.243065 -5.592264 26.676529 73.883409 8.613740 14.206018 6.573337 0.000000 -0.000000 0.000000 -25.410342 -23.956555 -80.305470 -1.059894 -16.564155 142.425081 1.849856 4.783113 3.024033 0.000000 -0.000000 0.000000 4.461979 -1.329325 40.689368 8.023824 -0.921254 -3.178264 3.270202 -1.877539 1.935370 6.330653 -2.031471 22.939115 0.187077 -3.947267 -8.365684 -5.174622 9.476390 12.517930 -72.063639 9.829562 10.455609 -8.199834 -23.910868 16.441774 58.128692 6.202909 -23.756970 7.022036 -10.645641 15.837861 66.795838 -18.736771 2.596667 15.381144 22.648189 29.600168 -60.616041 -0.294494 -21.943562 
1.042394 -0.018661 0.265272 85.434914 16.530966 34.873193 13.478027 13.259701 -70.069856 -6.555378 24.689089 65.757890 8.536076 15.072613 7.381039 0.000000 -0.000000 0.000000 -25.183504 -24.220437 -80.606472 -1.279125 -16.925594 142.579556 2.186582 4.751416 3.602202 0.000000 -0.000000 0.000000 4.614136 -1.404404 40.271889 7.914885 -0.626034 -2.978835 3.182744 -1.615363 1.940977 6.678021 -2.391058 22.643583 0.676764 -3.884081 -7.986045 -5.151235 9.715048 12.457385 -71.602080 9.763719 10.497203 -8.403474 -23.843410 16.500020 58.437701 5.853411 -23.760068 6.583686 -10.738389 16.326831 67.332340 -18.905311 2.431865 15.641265 23.050289 29.956777 -60.862616 0.345488 -21.814308 
1.042590 -0.021393 0.265424 84.878984 16.150069 34.693606 13.515452 12.229836 -67.052131 -7.253394 22.572921 58.090530 8.937154 15.967590 8.316089 0.000000 -0.000000 0.000000 -25.030798 -24.551280 -80.905250 -1.618943 -17.312271 142.810161 2.572393 4.662158 4.320815 0.000000 -0.000000 0.000000 4.703541 -1.358663 39.826767 7.860813 -0.315188 -2.700930 3.101178 -1.474888 2.012819 7.123732 -2.715237 22.097303 1.089590 -3.858338 -7.498213 -4.944941 9.977448 12.242390 -71.331574 9.912783 10.617249 -8.540815 -23.921509 16.641936 58.988789 5.761133 -23.950234 6.340155 -10.843531 16.408262 67.517219 -18.994126 2.408741 16.156604 23.049453 29.965953 -61.003161 0.667710 -21.526912 
1.042643 -0.023982 0.265564 84.248047 15.789058 34.549332 13.550884 11.305183 -64.004247 -7.738909 20.450603 51.052244 9.029725 16.486606 7.869165 0.000000 -0.000000 0.000000 -24.867173 -24.861588 -81.183349 -1.929088 -17.726802 143.006629 3.086489 4.680154 4.992850 0.000000 -0.000000 0.000000 4.840556 -1.249830 39.483623 7.825507 -0.035942 -2.345362 3.040949 -1.390763 1.902333 7.531147 -2.797893 21.556098 1.403860 -3.962165 -7.059090 -4.647193 10.062467 12.116512 -71.272211 9.998803 10.727050 -8.683853 -23.740549 16.525763 59.253844 5.393176 -23.984236 6.257479 -10.603071 16.570029 67.745139 -19.186766 2.644345 16.368401 23.048291 30.260056 -61.120452 1.308799 -21.698162 
1.042737 -0.026193 0.265286 83.596042 15.494565 34.405014 13.617921 10.444075 -61.088938 -8.407608 17.590340 43.976817 8.940690 16.452763 8.175844 0.000000 -0.000000 0.000000 -24.673035 -25.188096 -81.454081 -2.200203 -18.147111 143.183828 3.498473 4.753926 5.645626 0.000000 -0.000000 0.000000 4.946108 -1.249652 39.276927 7.817032 0.202587 -1.967335 2.966732 -1.242473 1.786921 7.829259 -2.788935 20.996546 1.603903 -4.012291 -6.724609 -4.471999 10.080625 12.002639 -71.161399 10.114807 10.845918 -8.905956 -23.637673 16.383935 59.514166 5.310175 -23.938261 6.267181 -10.351693 16.738369 67.945822 -19.247776 2.680434 16.461472 23.230522 30.058133 -61.245599 1.580083 -21.561939 
1.042804 -0.028214 0.264722 82.998786 15.265774 34.297729 13.676609 9.618057 -58.204827 -8.708870 14.530463 37.211616 8.396306 16.052407 8.535056 0.000000 -0.000000 0.000000 -24.347979 -25.526387 -81.778540 -2.433682 -18.448964 143.340205 3.817415 4.765982 6.222083 0.000000 -0.000000 0.000000 4.966628 -1.449901 39.242758 7.735679 0.443842 -1.763967 2.862828 -1.070004 1.824020 8.067148 -2.711059 20.470025 1.807238 -3.947694 -6.514073 -4.359959 10.162386 11.848858 -71.005322 10.228301 10.981873 -9.107551 -23.517661 16.128838 59.752643 5.210924 -23.971542 6.195669 -10.161045 16.893201 68.125190 -19.152307 2.741211 16.565976 23.406017 29.936026 -61.319133 1.871415 -21.472042 
1.043183 -0.029823 0.264268 82.416727 15.026106 34.244245 13.728406 8.951141 -55.390652 -8.836091 11.301914 30.811789 7.772370 15.886452 8.623663 0.000000 -0.000000 0.000000 -24.043381 -25.836706 -82.122492 -2.627684 -18.720697 143.489630 4.102845 4.767707 6.717963 0.000000 -0.000000 0.000000 4.970492 -1.650675 39.174196 7.636621 0.634739 -1.478666 2.729461 -0.960576 1.815413 8.208443 -2.555376 20.043115 1.922906 -3.855588 -6.303232 -4.343600 10.292456 11.667247 -70.845415 10.391850 11.091893 -9.245582 -23.331592 15.766831 60.015240 5.115898 -24.005672 6.238381 -9.994933 16.906881 68.149892 -19.047466 2.880582 16.546286 23.484880 29.751230 -61.448066 2.155874 -21.425891 
1.043481 -0.031261 0.263860 81.820812 14.871062 34.311851 13.724909 8.422594 -52.948262 -8.399334 8.271869 25.336649 7.497650 15.664259 8.208643 0.000000 -0.000000 0.000000 -23.742086 -26.091238 -82.511807 -2.854642 -19.055164 143.615187 4.419862 4.794728 7.187346 0.000000 -0.000000 0.000000 4.965188 -1.858135 39.124134 7.582532 0.817072 -1.322954 2.596698 -0.890379 1.805402 8.241151 -2.358189 19.728675 1.940977 -3.681533 -5.981148 -4.401365 10.459143 11.497819 -70.696720 10.588611 11.180245 -9.323804 -23.109105 15.334721 60.175136 5.025948 -24.042396 6.371190 -9.897118 16.801346 68.012838 -18.933649 3.076752 16.428401 23.479649 29.557657 -61.479008 2.415960 -21.413860 
1.043821 -0.032503 0.263409 81.230413 14.782496 34.522279 13.764803 8.132150 -50.994409 -7.750551 5.789273 20.950559 7.144634 15.492089 7.967319 0.000000 -0.000000 0.000000 -23.354736 -26.274795 -83.055004 -3.111217 -19.362045 143.739109 4.670847 4.840718 7.579547 0.000000 -0.000000 0.000000 4.908724 -2.068601 39.011011 7.549572 1.014314 -1.261616 2.490651 -0.833778 1.823234 8.178484 -2.092214 19.509258 1.910823 -3.462295 -5.526763 -4.516134 10.660326 11.368030 -70.524385 10.795115 11.241524 -9.428677 -22.890873 14.929450 60.373332 4.944773 -24.071069 6.625785 -9.871109 16.675472 67.690746 -18.764608 3.294963 16.281831 23.403071 29.352677 -61.542640 2.697335 -21.405803 
1.044080 -0.033548 0.262891 80.729041 14.872346 34.893782 13.820818 8.074956 -49.600470 -7.257167 3.739719 17.640611 6.784800 15.231125 7.645740 0.000000 -0.000000 0.000000 -22.994062 -26.509553 -83.607053 -3.388389 -19.733732 143.860273 4.815470 4.906547 7.882203 0.000000 -0.000000 0.000000 4.824785 -2.312478 38.756603 7.609476 1.157384 -1.138666 2.382848 -0.777856 1.803379 8.050085 -1.844503 19.228780 1.765446 -3.196636 -4.846234 -4.664622 10.835583 11.363144 -70.343035 10.913337 11.279258 -9.579575 -22.735857 14.609910 60.499564 5.036835 -24.037278 7.077324 -9.870212 16.488617 67.256530 -18.476357 3.456719 16.012038 23.232422 28.762769 -61.608429 2.765914 -21.169762 
1.044412 -0.034242 0.262084 80.375049 15.085267 35.335638 13.870193 7.909166 -48.448801 -6.789579 1.826070 14.921573 6.461970 14.914558 7.578721 0.000000 -0.000000 0.000000 -22.712089 -26.770883 -84.122858 -3.648948 -20.091552 143.975949 4.907192 4.972429 8.108441 0.000000 -0.000000 0.000000 4.721264 -2.602595 38.592169 7.666788 1.222623 -1.080232 2.284458 -0.683268 1.758366 7.671335 -1.718670 19.075346 1.703625 -2.769050 -4.268492 -4.937571 10.842604 11.514392 -70.098019 10.979000 11.252532 -9.728235 -22.744994 14.222612 60.559068 5.389128 -24.037626 7.657565 -9.882754 16.344477 66.809158 -17.990441 3.145909 15.726733 23.061137 27.415764 -61.539918 2.525333 -20.101266 
1.044976 -0.034536 0.261299 80.118843 15.329223 35.778318 13.836351 7.663054 -47.393013 -6.158390 0.238763 12.552486 6.065775 14.580232 7.759228 0.000000 -0.000000 0.000000 -22.470931 -26.989774 -84.614714 -3.885748 -20.313733 144.085683 4.995309 5.073937 8.247680 0.000000 -0.000000 0.000000 4.644606 -2.817437 38.420101 7.702654 1.243796 -0.896927 2.217448 -0.696113 1.628109 7.211382 -1.472058 19.185289 1.632858 -2.383157 -3.892918 -5.202132 10.807381 11.612990 -69.894465 11.077070 11.247794 -9.896098 -22.690679 13.711808 60.498083 5.381731 -24.095948 8.230716 -9.768961 16.203381 66.336189 -17.648673 3.333386 15.299946 22.767104 26.691602 -61.327667 2.825302 -19.889542 
1.045568 -0.034554 0.260576 79.934576 15.630923 36.181350 13.726798 7.466636 -46.365763 -5.474081 -0.799260 10.435328 5.835528 14.304363 7.898416 0.000000 -0.000000 0.000000 -22.261724 -27.146583 -85.063558 -4.075181 -20.460913 144.181085 5.104814 5.154459 8.357012 0.000000 -0.000000 0.000000 4.556431 -2.995312 38.359941 7.743540 1.284468 -0.722058 2.181155 -0.735899 1.457578 6.755620 -1.146550 19.415387 1.489772 -2.095369 -3.594548 -5.355023 10.825766 11.688613 -69.747020 11.189507 11.259024 -10.115725 -22.709734 13.300022 60.316068 5.284075 -24.129894 8.802834 -9.676453 16.052169 65.878509 -17.301460 3.650450 14.774632 22.374926 25.987470 -61.005873 3.150429 -19.800739 
1.046339 -0.034285 0.259775 79.753339 15.996229 36.583671 13.608934 7.426566 -45.616332 -4.849290 -1.172164 8.787822 5.543579 13.894049 8.472553 0.000000 -0.000000 0.000000 -22.075483 -27.200913 -85.522660 -4.279409 -20.554411 144.282153 5.201895 5.267183 8.427508 0.000000 -0.000000 0.000000 4.506369 -3.159555 38.299811 7.794067 1.366108 -0.579735 2.166578 -0.758762 1.339573 6.307654 -0.755960 19.674057 1.246299 -1.913089 -3.309767 -5.444268 10.877324 11.740647 -69.706845 11.341224 11.273655 -10.248938 -22.865723 12.996498 60.082249 5.158041 -24.111660 9.365059 -9.621701 15.887002 65.425880 -16.982726 4.026872 14.185072 21.984604 25.256594 -60.602297 3.453865 -19.760416 
1.047148 -0.033638 0.259138 79.650197 16.407695 36.910268 13.362264 7.551008 -45.001092 -4.299685 -1.043808 6.789273 4.998999 13.456816 9.721783 0.000000 -0.000000 0.000000 -21.985427 -27.196941 -85.841498 -4.451675 -20.544414 144.360519 5.268537 5.422243 8.424361 0.000000 -0.000000 0.000000 4.517566 -3.283637 38.334521 7.803714 1.428386 -0.336570 2.168549 -0.845422 1.105328 5.901560 -0.295842 19.993806 0.887915 -1.797401 -3.095095 -5.459723 10.972522 11.776377 -69.743810 11.522215 11.365590 -10.314278 -23.083306 12.730574 59.683577 4.877977 -24.229328 9.851716 -9.596400 15.726890 65.051244 -16.700034 4.773976 13.417199 21.523114 24.742698 -60.074184 3.897254 -20.378122 
1.048085 -0.032714 0.258608 79.646955 16.862063 37.121940 13.275709 7.535150 -44.736876 -4.165590 -1.191812 5.535048 4.239085 13.018108 10.573635 0.000000 -0.000000 0.000000 -21.962062 -27.175902 -86.028656 -4.525575 -20.466228 144.425082 5.315432 5.500853 8.412390 0.000000 -0.000000 0.000000 4.519614 -3.330618 38.539589 7.834005 1.469749 -0.216598 2.196563 -0.962597 0.979060 5.419221 0.121262 20.298077 0.491003 -1.599358 -2.985510 -5.453500 11.126045 11.820386 -69.699491 11.645658 11.549608 -10.522361 -23.426288 12.660448 59.423344 4.780083 -24.386954 10.311882 -9.730745 15.364934 64.660264 -16.407216 5.387573 12.736133 20.926349 24.123905 -59.675279 4.066880 -20.618030 
